<svg width="72" height="119" viewBox="0 0 72 119" fill="none" xmlns="http://www.w3.org/2000/svg">
<path fill-rule="evenodd" clip-rule="evenodd" d="M35 72V69H37V72H35ZM40.634 72.9738L42.134 70.3757L43.8661 71.3757L42.3661 73.9738L40.634 72.9738ZM36 90C39.866 90 43 86.866 43 83C43 79.134 39.866 76 36 76C32.134 76 29 79.134 29 83C29 86.866 32.134 90 36 90ZM36 92C40.9706 92 45 87.9706 45 83C45 78.0294 40.9706 74 36 74C31.0294 74 27 78.0294 27 83C27 87.9706 31.0294 92 36 92ZM47 82H50V84H47V82ZM47.6243 75.134L45.0263 76.634L46.0263 78.366L48.6243 76.866L47.6243 75.134ZM28.134 71.3757L29.634 73.9738L31.366 72.9738L29.866 70.3757L28.134 71.3757ZM25.9737 78.366L23.3757 76.866L24.3757 75.134L26.9737 76.634L25.9737 78.366ZM35 94V97H37V94H35ZM25 82H22V84H25V82ZM23.3756 89.134L25.9737 87.634L26.9737 89.366L24.3756 90.866L23.3756 89.134ZM29.634 92.0264L28.134 94.6244L29.8661 95.6244L31.3661 93.0264L29.634 92.0264ZM42.134 95.6244L40.634 93.0264L42.366 92.0264L43.866 94.6244L42.134 95.6244ZM45.0263 89.366L47.6244 90.866L48.6244 89.134L46.0263 87.634L45.0263 89.366Z" fill="url(#paint0_linear_9_821)"/>
<path fill-rule="evenodd" clip-rule="evenodd" d="M35 25V22H37V25H35ZM40.634 25.9738L42.134 23.3757L43.8661 24.3757L42.3661 26.9738L40.634 25.9738ZM36 43C39.866 43 43 39.866 43 36C43 32.134 39.866 29 36 29C32.134 29 29 32.134 29 36C29 39.866 32.134 43 36 43ZM36 45C40.9706 45 45 40.9706 45 36C45 31.0294 40.9706 27 36 27C31.0294 27 27 31.0294 27 36C27 40.9706 31.0294 45 36 45ZM47 35H50V37H47V35ZM47.6243 28.134L45.0263 29.634L46.0263 31.366L48.6243 29.866L47.6243 28.134ZM28.134 24.3757L29.634 26.9738L31.366 25.9738L29.866 23.3757L28.134 24.3757ZM25.9737 31.366L23.3757 29.866L24.3757 28.134L26.9737 29.634L25.9737 31.366ZM35 47V50H37V47H35ZM25 35H22V37H25V35ZM23.3756 42.134L25.9737 40.634L26.9737 42.366L24.3756 43.866L23.3756 42.134ZM29.634 45.0264L28.134 47.6244L29.8661 48.6244L31.3661 46.0264L29.634 45.0264ZM42.134 48.6244L40.634 46.0264L42.366 45.0264L43.866 47.6244L42.134 48.6244ZM45.0263 42.366L47.6244 43.866L48.6244 42.134L46.0263 40.634L45.0263 42.366Z" fill="white"/>
<rect x="0.5" y="0.5" width="71" height="118" rx="4.5" stroke="#7B61FF" stroke-dasharray="10 5"/>
<defs>
<linearGradient id="paint0_linear_9_821" x1="36" y1="69" x2="36" y2="97" gradientUnits="userSpaceOnUse">
<stop stop-color="#EFC977"/>
<stop offset="1" stop-color="#E07256"/>
</linearGradient>
</defs>
</svg>
